<?xml version="1.0" encoding="UTF-8"?>
<svg id="Layer_2" data-name="Layer 2" xmlns="http://www.w3.org/2000/svg" xmlns:xlink="http://www.w3.org/1999/xlink" viewBox="0 0 88.81 102">
  <defs>
    <style>
      .cls-1 {
        fill: url(#linear-gradient-2);
      }

      .cls-2 {
        fill: url(#linear-gradient);
      }
    </style>
    <linearGradient id="linear-gradient" x1="44.4" y1="90.86" x2="44.4" y2="-6.31" gradientTransform="translate(0 104) scale(1 -1)" gradientUnits="userSpaceOnUse">
      <stop offset="0" stop-color="#19cca7"/>
      <stop offset="1" stop-color="#fff"/>
    </linearGradient>
    <linearGradient id="linear-gradient-2" x1="62.9" y1="90.86" x2="62.9" y2="-6.31" xlink:href="#linear-gradient"/>
  </defs>
  <g id="Layer_1-2" data-name="Layer 1">
    <g>
      <path class="cls-2" d="M46.08.48l40.94,23.56c1.11.64,1.79,1.82,1.79,3.1v46.97c0,1.24-.64,2.39-1.69,3.04l-32.09,19.86c-.42.26-.96-.04-.96-.53v-7.91c0-1.26.67-2.43,1.75-3.08l22.54-13.33c1.09-.65,1.76-1.83,1.75-3.1l-.19-35.32c0-1.34-1.46-2.18-2.63-1.51l-31.21,18.08c-1.11.64-1.78,1.82-1.78,3.09v47.96c0,.47-.49.77-.9.56l-6.86-3.35c-1.23-.6-2.01-1.85-2.01-3.21v-46.75c0-1.27.67-2.45,1.77-3.09l32.92-19.27c.41-.24.41-.84,0-1.08l-4.23-2.51c-2.27-1.34-5.08-1.35-7.35-.03l-29.59,17.24c-1.1.64-1.78,1.82-1.78,3.09v48.09c0,.48-.52.79-.94.54l-6.19-3.62c-1.1-.64-1.77-1.82-1.77-3.09v-46.71c0-1.27.67-2.45,1.78-3.09l32.55-18.99c.42-.24.41-.85,0-1.09l-3.7-2.08c-2.48-1.4-5.52-1.4-8,0L10.51,29.48c-1.13.63-1.83,1.83-1.83,3.12v48.28c0,.48-.52.79-.94.54l-5.95-3.42c-1.11-.64-1.79-1.82-1.79-3.1V26.93c0-1.28.69-2.47,1.8-3.1L42.51.47c1.11-.63,2.46-.63,3.56,0h0Z"/>
      <path class="cls-1" d="M69.85,47.37l-15.44,8.75c-.49.28-.79.8-.79,1.37v17.85c0,1.21,1.31,1.97,2.36,1.35l15.44-9.02c.48-.28.78-.8.78-1.35v-17.58c0-1.2-1.3-1.96-2.34-1.37h0Z"/>
    </g>
  </g>
</svg>