<svg width="5" height="8" viewBox="0 0 5 8" fill="none" xmlns="http://www.w3.org/2000/svg">
<path d="M0.184387 3.7413C0.184387 3.675 0.197411 3.61106 0.223458 3.5495C0.249505 3.48793 0.286208 3.4311 0.333566 3.37901L3.45922 0.253357C3.55867 0.153904 3.67943 0.104178 3.82151 0.104178C3.96358 0.104178 4.08435 0.153904 4.1838 0.253357C4.28325 0.352809 4.33298 0.472389 4.33298 0.612096C4.33298 0.751803 4.28325 0.871383 4.1838 0.970836L1.41334 3.7413L4.1838 6.51176C4.28325 6.61121 4.33298 6.73079 4.33298 6.8705C4.33298 7.01021 4.28325 7.12979 4.1838 7.22924C4.08435 7.32869 3.96358 7.37842 3.82151 7.37842C3.67943 7.37842 3.55867 7.32869 3.45922 7.22924L0.333566 4.10359C0.286208 4.0515 0.249505 3.99467 0.223458 3.9331C0.197411 3.87153 0.184387 3.8076 0.184387 3.7413Z" fill="#1C2121"/>
</svg>
