<svg width="21" height="21" viewBox="0 0 21 21" fill="none" xmlns="http://www.w3.org/2000/svg">
<path d="M2.16724 10.2615C2.16724 7.06167 2.16724 5.46176 3.1613 4.46769C4.15536 3.47363 5.75528 3.47363 8.95511 3.47363H12.3491C15.5489 3.47363 17.1488 3.47363 18.1429 4.46769C19.1369 5.46176 19.1369 7.06167 19.1369 10.2615V11.9585C19.1369 15.1583 19.1369 16.7582 18.1429 17.7523C17.1488 18.7464 15.5489 18.7464 12.3491 18.7464H8.95511C5.75528 18.7464 4.15536 18.7464 3.1613 17.7523C2.16724 16.7582 2.16724 15.1583 2.16724 11.9585V10.2615Z" stroke="#2E3232" stroke-width="1.27273"/>
<path d="M6.40967 3.47341V2.20068" stroke="#2E3232" stroke-width="1.27273" stroke-linecap="round"/>
<path d="M14.8945 3.47341V2.20068" stroke="#2E3232" stroke-width="1.27273" stroke-linecap="round"/>
<path d="M2.59131 7.71606H18.7125" stroke="#2E3232" stroke-width="1.27273" stroke-linecap="round"/>
</svg>
