<svg width="21" height="20" viewBox="0 0 21 20" fill="none" xmlns="http://www.w3.org/2000/svg">
<path d="M12.1802 12.6996L16.7503 12.6996C17.5715 12.6996 18.3469 12.3213 18.8522 11.674C19.3576 11.0268 19.5365 10.1828 19.3374 9.38616L17.9423 3.8058C17.637 2.58478 16.5399 1.72819 15.2813 1.72819L2.65645 1.72819C1.89904 1.72819 1.28504 2.34219 1.28504 3.09961L1.28503 11.3282C1.28503 12.0856 1.89904 12.6996 2.65645 12.6996L6.08502 12.6996L6.08502 12.7024L7.8645 17.9659C7.96832 18.2729 8.19016 18.526 8.48098 18.6691C8.7718 18.8123 9.10766 18.8337 9.41431 18.7287L10.1201 18.487C11.3524 18.0649 12.1802 16.9063 12.1802 15.6038L12.1802 12.7024" stroke="#949696" stroke-width="1.70666" stroke-linecap="round" stroke-linejoin="round"/>
<path d="M6.08509 1.73121L6.08509 12.7002" stroke="#949696" stroke-width="1.70666" stroke-linecap="round" stroke-linejoin="round"/>
</svg>
