<svg width="20" height="16" viewBox="0 0 20 16" fill="none" xmlns="http://www.w3.org/2000/svg">
<path d="M12.3112 5.87999C13.4822 7.05099 13.4822 8.95199 12.3112 10.125C11.1402 11.296 9.23924 11.296 8.06624 10.125C6.89524 8.95399 6.89524 7.05299 8.06624 5.87999C9.23924 4.70699 11.1392 4.70699 12.3112 5.87999" stroke="#2E3232" stroke-width="1.5" stroke-linecap="round" stroke-linejoin="round"/>
<path fill-rule="evenodd" clip-rule="evenodd" d="M1.18921 8C1.18921 7.341 1.34121 6.689 1.63521 6.088V6.088C3.15021 2.991 6.49821 1 10.1892 1C13.8802 1 17.2282 2.991 18.7432 6.088V6.088C19.0372 6.689 19.1892 7.341 19.1892 8C19.1892 8.659 19.0372 9.311 18.7432 9.912V9.912C17.2282 13.009 13.8802 15 10.1892 15C6.49821 15 3.15021 13.009 1.63521 9.912V9.912C1.34121 9.311 1.18921 8.659 1.18921 8Z" stroke="#2E3232" stroke-width="1.5" stroke-linecap="round" stroke-linejoin="round"/>
</svg>
