<svg width="67" height="65" viewBox="0 0 67 65" fill="none" xmlns="http://www.w3.org/2000/svg">
<rect x="0.875" y="0.426575" width="65.5566" height="64.1468" rx="32.0734" fill="#EAEDED"/>
<path d="M42.2884 31.2664V27.3534C42.2884 26.6996 42.0281 26.0717 41.5655 25.6091L38.0769 22.1205C37.6143 21.6579 36.9864 21.3976 36.3326 21.3976H27.4853C26.1221 21.3976 25.0181 22.5017 25.0181 23.8648V41.1351C25.0181 42.4982 26.1221 43.6023 27.4853 43.6023H32.4196" stroke="#304C49" stroke-width="1.85039" stroke-linecap="round" stroke-linejoin="round"/>
<path d="M42.2886 27.5656H37.3542C36.6733 27.5656 36.1206 27.013 36.1206 26.332V21.3976" stroke="#304C49" stroke-width="1.85039" stroke-linecap="round" stroke-linejoin="round"/>
<path fill-rule="evenodd" clip-rule="evenodd" d="M40.0022 43.2409L44.3938 38.8493C44.8761 38.3669 44.8761 37.5861 44.3938 37.105L42.4373 35.1485C41.9549 34.6662 41.1741 34.6662 40.693 35.1485L36.3014 39.5401C36.0695 39.772 35.9399 40.0853 35.9399 40.4122V43.6023H39.13C39.4569 43.6023 39.7702 43.4728 40.0022 43.2409Z" stroke="#304C49" stroke-width="1.85039" stroke-linecap="round" stroke-linejoin="round"/>
</svg>
