<svg width="33" height="33" viewBox="0 0 33 33" fill="none" xmlns="http://www.w3.org/2000/svg">
<circle cx="16.2874" cy="16.3007" r="16.2874" fill="#F5F5F5"/>
<path d="M12.1381 14.1178C12.6776 12.8482 13.1617 11.904 13.5902 11.2851L14.947 11.9992C14.5027 12.9355 14.1377 13.7528 13.852 14.4511C13.5822 15.1494 13.4473 15.7603 13.4473 16.284C13.4473 16.649 13.5267 17.0537 13.6854 17.4981C13.8441 17.9424 14.1218 18.5058 14.5185 19.1882L12.6856 20.3308C12.2888 19.8389 11.9635 19.3072 11.7096 18.7359C11.4557 18.1487 11.3287 17.5616 11.3287 16.9744C11.3287 16.3237 11.5985 15.3715 12.1381 14.1178ZM17.8274 14.1178C18.367 12.8482 18.851 11.904 19.2795 11.2851L20.6363 11.9992C20.192 12.9514 19.827 13.7845 19.5413 14.4987C19.2715 15.2128 19.1367 15.8318 19.1367 16.3555C19.1367 16.7205 19.2081 17.1172 19.3509 17.5457C19.5096 17.9742 19.7873 18.5217 20.1841 19.1882L18.3749 20.3308C17.9782 19.8389 17.6528 19.3072 17.3989 18.7359C17.145 18.1487 17.018 17.5616 17.018 16.9744C17.018 16.3237 17.2878 15.3715 17.8274 14.1178Z" fill="black"/>
</svg>
