<svg width="28" height="27" viewBox="0 0 28 27" fill="none" xmlns="http://www.w3.org/2000/svg">
<path d="M25.8136 13.7623C25.8136 12.7911 25.7332 12.0823 25.5591 11.3474H14.2422V15.7311H20.885C20.7511 16.8205 20.0279 18.4611 18.4207 19.5635L18.3982 19.7103L21.9764 22.4269L22.2243 22.4511C24.5011 20.3904 25.8136 17.3586 25.8136 13.7623Z" fill="#4285F4"/>
<path d="M14.2415 25.3125C17.4959 25.3125 20.228 24.2625 22.2236 22.4513L18.42 19.5637C17.4022 20.2593 16.0361 20.7449 14.2415 20.7449C11.054 20.7449 8.34869 18.6843 7.38431 15.8362L7.24296 15.8479L3.52229 18.6699L3.47363 18.8024C5.45575 22.6612 9.52717 25.3125 14.2415 25.3125Z" fill="#34A853"/>
<path d="M7.38485 15.8362C7.13039 15.1012 6.98312 14.3137 6.98312 13.5C6.98312 12.6862 7.13039 11.8987 7.37146 11.1637L7.36472 11.0072L3.59742 8.13995L3.47416 8.19741C2.65723 9.79868 2.18848 11.5968 2.18848 13.5C2.18848 15.4031 2.65723 17.2011 3.47416 18.8024L7.38485 15.8362Z" fill="#FBBC05"/>
<path d="M14.2415 6.25497C16.5049 6.25497 18.0317 7.21309 18.9022 8.01377L22.304 4.75875C20.2148 2.85563 17.496 1.6875 14.2415 1.6875C9.5272 1.6875 5.45576 4.33873 3.47363 8.19745L7.37095 11.1637C8.34871 8.31562 11.0541 6.25497 14.2415 6.25497Z" fill="#EB4335"/>
</svg>
