<svg width="26" height="26" viewBox="0 0 26 26" fill="none" xmlns="http://www.w3.org/2000/svg">
<path d="M17.11 19.5832V14.3174" stroke="#292F2F" stroke-width="1.51701" stroke-linecap="round" stroke-linejoin="round"/>
<path d="M9.01959 19.5897V14.3174" stroke="#292F2F" stroke-width="1.51701" stroke-linecap="round" stroke-linejoin="round"/>
<path d="M6.06976 9.00781L4.45387 9.97737C4.14924 10.1601 3.96284 10.4893 3.96283 10.8446V20.6218C3.96282 20.9862 4.1588 21.3224 4.47586 21.5019C4.79291 21.6814 5.18203 21.6765 5.49447 21.4891L8.43639 19.724C8.78898 19.5124 9.23458 19.5354 9.56353 19.7821L12.4581 21.953C12.8177 22.2227 13.3121 22.2227 13.6717 21.953L16.5663 19.7821C16.8952 19.5353 17.3408 19.5123 17.6934 19.7239L20.6353 21.4891C20.9478 21.6765 21.3369 21.6814 21.6539 21.5019C21.971 21.3224 22.167 20.9862 22.1669 20.6218V10.8446C22.1669 10.4893 21.9805 10.1601 21.6759 9.97736L20.06 9.00781" stroke="#292F2F" stroke-width="1.51701" stroke-linecap="round" stroke-linejoin="round"/>
<path d="M13.0648 16.3408V22.1545" stroke="#292F2F" stroke-width="1.51701" stroke-linecap="round" stroke-linejoin="round"/>
<path d="M9.01971 6.98481V6.98481C9.01971 4.75062 10.8309 2.93945 13.0651 2.93945V2.93945C15.2993 2.93945 17.1104 4.75062 17.1104 6.98481V6.98481" stroke="#292F2F" stroke-width="1.51701" stroke-linecap="round" stroke-linejoin="round"/>
<path d="M9.01971 6.98535C9.01971 8.8124 11.0356 10.7626 12.2212 11.7519C12.7167 12.1386 13.4116 12.1388 13.9073 11.7523C15.0939 10.7632 17.1104 8.81269 17.1104 6.98535" stroke="#292F2F" stroke-width="1.51701" stroke-linecap="round" stroke-linejoin="round"/>
<path d="M13.0658 6.62003C13.2053 6.62059 13.318 6.73403 13.3176 6.87354C13.3173 7.01304 13.204 7.12588 13.0645 7.1257C12.925 7.12551 12.812 7.01237 12.812 6.87286C12.8116 6.80552 12.8383 6.74085 12.886 6.69333C12.9337 6.64581 12.9985 6.6194 13.0658 6.62003" stroke="#292F2F" stroke-width="1.51701" stroke-linecap="round" stroke-linejoin="round"/>
</svg>
