<svg width="24" height="20" viewBox="0 0 24 20" fill="none" xmlns="http://www.w3.org/2000/svg">
<path d="M19.3 5.91949V11.0695C19.3 14.1495 17.54 15.4695 14.9 15.4695H6.10995C5.65995 15.4695 5.22996 15.4295 4.82996 15.3395C4.57996 15.2995 4.33996 15.2295 4.11996 15.1495C2.61996 14.5895 1.70996 13.2895 1.70996 11.0695V5.91949C1.70996 2.83949 3.46995 1.51953 6.10995 1.51953H14.9C17.14 1.51953 18.75 2.46953 19.18 4.63953C19.25 5.03953 19.3 5.44949 19.3 5.91949Z" stroke="#1C2121" stroke-width="1.5" stroke-miterlimit="10" stroke-linecap="round" stroke-linejoin="round"/>
<path d="M22.3011 8.9196V14.0696C22.3011 17.1496 20.5411 18.4696 17.9011 18.4696H9.11105C8.37105 18.4696 7.70106 18.3697 7.12106 18.1497C5.93106 17.7097 5.12105 16.7997 4.83105 15.3397C5.23105 15.4297 5.66105 15.4696 6.11105 15.4696H14.9011C17.5411 15.4696 19.3011 14.1496 19.3011 11.0696V5.91962C19.3011 5.44962 19.2611 5.02965 19.1811 4.63965C21.0811 5.03965 22.3011 6.37962 22.3011 8.9196Z" stroke="#1C2121" stroke-width="1.5" stroke-miterlimit="10" stroke-linecap="round" stroke-linejoin="round"/>
<path d="M10.4984 11.1394C11.9564 11.1394 13.1384 9.9574 13.1384 8.4994C13.1384 7.04136 11.9564 5.85938 10.4984 5.85938C9.04038 5.85938 7.8584 7.04136 7.8584 8.4994C7.8584 9.9574 9.04038 11.1394 10.4984 11.1394Z" stroke="#1C2121" stroke-width="1.5" stroke-miterlimit="10" stroke-linecap="round" stroke-linejoin="round"/>
<path d="M4.78003 6.2998V10.6998" stroke="#1C2121" stroke-width="1.5" stroke-miterlimit="10" stroke-linecap="round" stroke-linejoin="round"/>
<path d="M16.2217 6.2998V10.6998" stroke="#1C2121" stroke-width="1.5" stroke-miterlimit="10" stroke-linecap="round" stroke-linejoin="round"/>
</svg>
