<svg width="57" height="40" viewBox="0 0 57 40" fill="none" xmlns="http://www.w3.org/2000/svg">
<rect x="17.6699" y="0.498535" width="39.3036" height="39.3036" rx="19.6518" fill="#EFEFEF"/>
<rect x="21.0582" y="3.88684" width="32.5271" height="32.5271" rx="16.2636" fill="#0052B4"/>
<path d="M37.3216 10.6633L37.8264 12.2162H39.4591L38.1382 13.1759L38.6428 14.7289L37.3216 13.7691L36.0007 14.7289L36.5052 13.1759L35.1844 12.2162H36.8171L37.3216 10.6633Z" fill="#FFC83C"/>
<path d="M30.6139 13.4428L32.0687 14.184L33.2233 13.0294L32.9679 14.6422L34.4227 15.3835L32.81 15.6387L32.5546 17.2517L31.8132 15.7967L30.2006 16.0522L31.3553 14.8977L30.6139 13.4428Z" fill="#FFC83C"/>
<path d="M27.8347 20.148L29.3875 19.6434L29.3878 18.0109L30.3472 19.3316L31.9002 18.8269L30.9404 20.148L31.9002 21.4692L30.3472 20.9646L29.3878 22.2854V20.6528L27.8347 20.148Z" fill="#FFC83C"/>
<path d="M30.6139 26.8584L31.3551 25.4035L30.2006 24.2491L31.8133 24.5044L32.5546 23.0496L32.81 24.6623L34.4227 24.9176L32.9679 25.659L33.2233 27.2718L32.0687 26.117L30.6139 26.8584Z" fill="#FFC83C"/>
<path d="M37.3217 29.6377L36.8172 28.0847H35.1844L36.5053 27.125L36.0008 25.5721L37.3217 26.5318L38.6429 25.5721L38.1383 27.125L39.4592 28.0847H37.8265L37.3217 29.6377Z" fill="#FFC83C"/>
<path d="M44.0292 26.8584L42.5743 26.1173L41.4198 27.2718L41.6752 25.659L40.2203 24.9178L41.8331 24.6623L42.0886 23.0496L42.8298 24.5044L44.4425 24.2491L43.2878 25.4036L44.0292 26.8584Z" fill="#FFC83C"/>
<path d="M46.8087 20.148L45.2557 20.6528V22.2854L44.2961 20.9645L42.7432 21.4692L43.703 20.148L42.7432 18.8269L44.2961 19.3316L45.2557 18.0109V19.6434L46.8087 20.148Z" fill="#FFC83C"/>
<path d="M44.0292 13.4428L43.2881 14.8976L44.4425 16.0521L42.8298 15.7966L42.0886 17.2516L41.8331 15.6386L40.2203 15.3833L41.6752 14.6421L41.4198 13.0294L42.5744 14.1839L44.0292 13.4428Z" fill="#FFC83C"/>
<rect x="0.0509033" y="0.498535" width="39.3036" height="39.3036" rx="19.6518" fill="#EFEFEF"/>
<g clip-path="url(#clip0_1_676)">
<path d="M19.7027 36.414C28.6848 36.414 35.9663 29.1325 35.9663 20.1504C35.9663 11.1683 28.6848 3.88684 19.7027 3.88684C10.7206 3.88684 3.43915 11.1683 3.43915 20.1504C3.43915 29.1325 10.7206 36.414 19.7027 36.414Z" fill="#F0F0F0"/>
<path d="M18.9951 20.1504H35.9658C35.9658 18.6825 35.7701 17.2604 35.4055 15.9077H18.9951V20.1504Z" fill="#D80027"/>
<path d="M18.9951 11.6642H33.5787C32.5831 10.0396 31.3102 8.60367 29.826 7.42151H18.9951V11.6642Z" fill="#D80027"/>
<path d="M19.7023 36.4138C23.5299 36.4138 27.048 35.0909 29.8261 32.8783H9.57849C12.3566 35.0909 15.8747 36.4138 19.7023 36.4138Z" fill="#D80027"/>
<path d="M5.82588 28.6344H33.5789C34.3782 27.3302 34.998 25.9046 35.4057 24.3917H3.99908C4.40675 25.9046 5.02661 27.3302 5.82588 28.6344Z" fill="#D80027"/>
<path d="M10.9727 6.42663H12.4548L11.0762 7.42817L11.6028 9.04875L10.2243 8.0472L8.84577 9.04875L9.30064 7.64874C8.08684 8.65982 7.02298 9.84439 6.14627 11.1643H6.62115L5.74362 11.8018C5.6069 12.0299 5.47578 12.2616 5.35012 12.4967L5.76916 13.7864L4.98736 13.2184C4.79303 13.6301 4.61527 14.0511 4.45549 14.4809L4.91716 15.9019H6.62115L5.24256 16.9035L5.76916 18.5241L4.39063 17.5225L3.56487 18.1225C3.48222 18.7869 3.43915 19.4636 3.43915 20.1504H19.7027C19.7027 11.1683 19.7027 10.1094 19.7027 3.88684C16.4899 3.88684 13.4949 4.81882 10.9727 6.42663ZM11.6028 18.5241L10.2243 17.5225L8.84577 18.5241L9.37237 16.9035L7.99377 15.9019H9.69776L10.2243 14.2814L10.7508 15.9019H12.4548L11.0762 16.9035L11.6028 18.5241ZM11.0762 12.1658L11.6028 13.7864L10.2243 12.7849L8.84577 13.7864L9.37237 12.1658L7.99377 11.1643H9.69776L10.2243 9.54371L10.7508 11.1643H12.4548L11.0762 12.1658ZM17.4365 18.5241L16.058 17.5225L14.6794 18.5241L15.206 16.9035L13.8274 15.9019H15.5314L16.058 14.2814L16.5845 15.9019H18.2885L16.9099 16.9035L17.4365 18.5241ZM16.9099 12.1658L17.4365 13.7864L16.058 12.7849L14.6794 13.7864L15.206 12.1658L13.8274 11.1643H15.5314L16.058 9.54371L16.5845 11.1643H18.2885L16.9099 12.1658ZM16.9099 7.42817L17.4365 9.04875L16.058 8.0472L14.6794 9.04875L15.206 7.42817L13.8274 6.42663H15.5314L16.058 4.80605L16.5845 6.42663H18.2885L16.9099 7.42817Z" fill="#0052B4"/>
</g>
<defs>
<clipPath id="clip0_1_676">
<rect width="32.5271" height="32.5271" fill="white" transform="translate(3.43915 3.88684)"/>
</clipPath>
</defs>
</svg>
