<svg width="26" height="25" viewBox="0 0 26 25" fill="none" xmlns="http://www.w3.org/2000/svg">
<path fill-rule="evenodd" clip-rule="evenodd" d="M11.0905 14.0354C9.90719 12.8521 9.01519 11.5272 8.42255 10.1832C8.29714 9.89898 8.37097 9.56625 8.59043 9.34679L9.41872 8.5185C10.0973 7.83989 10.0973 6.88013 9.50468 6.28748L8.31737 5.10118C7.52751 4.31132 6.24715 4.31132 5.4573 5.10118L4.7979 5.75956C4.0485 6.50897 3.736 7.59009 3.93826 8.66211C4.43787 11.3047 5.97308 14.1982 8.44985 16.675C10.9266 19.1517 13.8201 20.6869 16.4627 21.1865C17.5347 21.3888 18.6158 21.0763 19.3652 20.3269L20.0236 19.6685C20.8135 18.8787 20.8135 17.5983 20.0236 16.8085L18.8373 15.6222C18.2447 15.0295 17.2839 15.0295 16.6923 15.6222L15.779 16.5364C15.5596 16.7559 15.2268 16.8297 14.9427 16.7043C13.5986 16.1106 12.2737 15.2176 11.0905 14.0354Z" stroke="#292F2F" stroke-width="1.51701" stroke-linecap="round" stroke-linejoin="round"/>
<path d="M13.995 5.23763V2.87109" stroke="#292F2F" stroke-width="1.51701" stroke-linecap="round" stroke-linejoin="round"/>
<path d="M18.2122 6.90567L19.8809 5.24707" stroke="#292F2F" stroke-width="1.51701" stroke-linecap="round" stroke-linejoin="round"/>
<path d="M19.8915 11.1346H22.2479" stroke="#292F2F" stroke-width="1.51701" stroke-linecap="round" stroke-linejoin="round"/>
</svg>
