<svg width="14" height="13" viewBox="0 0 14 13" fill="none" xmlns="http://www.w3.org/2000/svg">
<path d="M6.25581 7.81982C6.25581 7.98761 6.30658 8.12228 6.40814 8.22383C6.5097 8.32539 6.64437 8.37617 6.81216 8.37617C6.97994 8.37617 7.11462 8.32539 7.21617 8.22383C7.31773 8.12228 7.36851 7.98761 7.36851 7.81982V7.64761C7.36851 7.62112 7.37954 7.60567 7.40162 7.60125C7.4237 7.59684 7.43474 7.59463 7.43474 7.59463C7.57603 7.50632 7.74382 7.40697 7.9381 7.29658C8.13238 7.1862 8.30017 7.06036 8.44146 6.91906C8.58276 6.77777 8.72185 6.59452 8.85873 6.36934C8.99561 6.14415 9.06405 5.87701 9.06405 5.56793C9.06405 5.28534 9.0221 5.02041 8.9382 4.77314C8.85431 4.52588 8.72405 4.3051 8.54744 4.11082C8.37965 3.88122 8.17654 3.70681 7.9381 3.58759C7.69967 3.46837 7.45681 3.37785 7.20955 3.31604C6.95345 3.26305 6.69294 3.26305 6.42801 3.31604C6.16308 3.36902 5.91582 3.46616 5.68621 3.60746C5.46544 3.74875 5.27336 3.91654 5.10999 4.11082C4.94662 4.3051 4.82078 4.53029 4.73247 4.78639C4.67948 4.92768 4.68831 5.06898 4.75896 5.21027C4.82961 5.35157 4.93558 5.45313 5.07688 5.51494C5.20934 5.56793 5.34843 5.5591 5.49414 5.48845C5.63985 5.4178 5.74361 5.31183 5.80543 5.17054C5.85841 5.02924 5.92685 4.90561 6.01075 4.79964C6.09464 4.69366 6.19399 4.61419 6.30879 4.5612C6.45009 4.49938 6.58034 4.45744 6.69956 4.43536C6.81878 4.41328 6.94904 4.41549 7.09033 4.44198C7.20513 4.47731 7.3111 4.52367 7.40824 4.58107C7.50538 4.63847 7.5672 4.72457 7.59369 4.83937C7.682 4.95418 7.75265 5.06898 7.80564 5.18378C7.85862 5.29858 7.88512 5.42663 7.88512 5.56793C7.88512 5.65624 7.86525 5.74455 7.82551 5.83286C7.78577 5.92116 7.7085 6.01831 7.59369 6.12428C7.51422 6.21259 7.41045 6.29648 7.2824 6.37596C7.15435 6.45544 7.03293 6.52167 6.91813 6.57465C6.72385 6.66296 6.56489 6.79984 6.44126 6.98529C6.31762 7.17074 6.25581 7.39152 6.25581 7.64761V7.81982ZM6.91813 10.0585C7.09475 10.0585 7.23383 10.0077 7.33539 9.90613C7.43694 9.80457 7.48772 9.6699 7.48772 9.50211C7.48772 9.33432 7.43694 9.19965 7.33539 9.0981C7.23383 8.99654 7.09475 8.94576 6.91813 8.94576C6.75034 8.94576 6.61567 8.99654 6.51411 9.0981C6.41256 9.19965 6.36178 9.33432 6.36178 9.50211C6.36178 9.6699 6.41256 9.80457 6.51411 9.90613C6.61567 10.0077 6.75034 10.0585 6.91813 10.0585ZM1.87125 6.69387C1.87125 6.69387 1.87125 6.69166 1.87125 6.68725C1.87125 6.68283 1.87125 6.67621 1.87125 6.66738C1.87125 5.97857 2.00371 5.32508 2.26864 4.70691C2.53357 4.09758 2.89343 3.56551 3.34822 3.11072C3.80301 2.65592 4.33508 2.29606 4.94441 2.03114C5.55375 1.76621 6.20724 1.63374 6.90488 1.63374C6.90488 1.63374 6.90709 1.63374 6.9115 1.63374C6.91592 1.63374 6.92254 1.63374 6.93137 1.63374H6.91813C6.92696 1.63374 6.93358 1.63374 6.938 1.63374C6.94241 1.63374 6.94462 1.63374 6.94462 1.63374C7.64226 1.63374 8.29575 1.76621 8.90509 2.03114C9.51442 2.29606 10.0465 2.65592 10.5013 3.11072C10.9561 3.56551 11.3159 4.09758 11.5809 4.70691C11.8458 5.32508 11.9783 5.97857 11.9783 6.66738C11.9783 6.67621 11.9783 6.68283 11.9783 6.68725C11.9783 6.69166 11.9783 6.69387 11.9783 6.69387C11.9783 6.69387 11.9783 6.69608 11.9783 6.7005C11.9783 6.70491 11.9783 6.71153 11.9783 6.72037C11.9783 7.40918 11.8458 8.06267 11.5809 8.68083C11.3159 9.29017 10.9561 9.82223 10.5013 10.277C10.0465 10.7318 9.51442 11.0917 8.90509 11.3566C8.29575 11.6215 7.64226 11.754 6.94462 11.754C6.94462 11.754 6.94241 11.754 6.938 11.754C6.93358 11.754 6.92696 11.754 6.91813 11.754C6.91813 11.754 6.91592 11.754 6.9115 11.754C6.90709 11.754 6.90488 11.754 6.90488 11.754C6.20724 11.754 5.55375 11.6215 4.94441 11.3566C4.33508 11.0917 3.80301 10.7318 3.34822 10.277C2.89343 9.82223 2.53357 9.28575 2.26864 8.66759C2.00371 8.05825 1.87125 7.40918 1.87125 6.72037C1.87125 6.71153 1.87125 6.70491 1.87125 6.7005C1.87125 6.69608 1.87125 6.69387 1.87125 6.69387ZM6.91813 12.8667C6.92696 12.8667 6.93137 12.8667 6.93137 12.8667C6.93137 12.8667 6.93579 12.8667 6.94462 12.8667C7.79239 12.8667 8.59159 12.7077 9.34222 12.3898C10.0928 12.0631 10.7463 11.6215 11.3027 11.0652C11.859 10.5088 12.2962 9.85535 12.6141 9.10472C12.9408 8.36292 13.1042 7.56372 13.1042 6.70712C13.1042 6.70712 13.1042 6.70491 13.1042 6.7005C13.1042 6.69608 13.1042 6.69387 13.1042 6.69387C13.1042 6.69387 13.1042 6.69166 13.1042 6.68725C13.1042 6.68283 13.1042 6.68063 13.1042 6.68063C13.1042 5.82402 12.9408 5.02482 12.6141 4.28303C12.2962 3.5324 11.859 2.87891 11.3027 2.32256C10.7463 1.76621 10.0928 1.32466 9.34222 0.997916C8.59159 0.671171 7.79239 0.507799 6.94462 0.507799C6.93579 0.507799 6.93137 0.507799 6.93137 0.507799C6.93137 0.507799 6.92696 0.507799 6.91813 0.507799C6.06153 0.507799 5.25791 0.671171 4.50728 0.997916C3.75665 1.31583 3.10316 1.75517 2.54681 2.31593C1.99046 2.8767 1.55333 3.5324 1.23542 4.28303C0.908673 5.03366 0.7453 5.83727 0.7453 6.69387C0.7453 7.55047 0.908673 8.35409 1.23542 9.10472C1.55333 9.85535 1.99046 10.5088 2.54681 11.0652C3.10316 11.6215 3.75665 12.0631 4.50728 12.3898C5.25791 12.7077 6.06153 12.8667 6.91813 12.8667Z" fill="#304C49"/>
</svg>
