<svg width="20" height="20" viewBox="0 0 20 20" fill="none" xmlns="http://www.w3.org/2000/svg">
<path d="M12.6163 4.54964C13.9951 5.92837 13.9951 8.11812 12.6163 9.41575C11.2376 10.7134 9.04784 10.7945 7.7502 9.41575C6.45257 8.03702 6.37147 5.84727 7.7502 4.54964C9.12894 3.25201 11.2376 3.25201 12.6163 4.54964" stroke="white" stroke-width="1.21653" stroke-linecap="round" stroke-linejoin="round"/>
<path d="M3.69556 16.5529C3.69556 14.5254 5.3176 12.9033 7.34514 12.9033H9.45379" stroke="white" stroke-width="1.21653" stroke-linecap="round" stroke-linejoin="round"/>
<path fill-rule="evenodd" clip-rule="evenodd" d="M11.8057 17.3639H13.671L16.4285 14.6065C16.7529 14.282 16.7529 13.7954 16.4285 13.471L15.6986 12.7411C15.3741 12.4167 14.8875 12.4167 14.5631 12.7411L11.8057 15.4986V17.3639V17.3639H11.8057Z" stroke="white" stroke-width="1.21653" stroke-linecap="round" stroke-linejoin="round"/>
</svg>
