<svg width="67" height="65" viewBox="0 0 67 65" fill="none" xmlns="http://www.w3.org/2000/svg">
<rect x="0.665527" y="0.426575" width="65.5566" height="64.1468" rx="32.0734" fill="#EAEDED"/>
<path d="M44.5461 32.5H40.1286C39.1615 32.5 38.3782 33.2833 38.3782 34.2504V35.6839C38.3782 36.651 39.1615 37.4343 40.1286 37.4343H44.5461" stroke="#304C49" stroke-width="1.85039" stroke-linecap="round" stroke-linejoin="round"/>
<path fill-rule="evenodd" clip-rule="evenodd" d="M42.0788 43.6023H24.8085C23.4454 43.6023 22.3413 42.4983 22.3413 41.1351V28.7992C22.3413 27.4361 23.4454 26.332 24.8085 26.332H42.0788C43.4419 26.332 44.546 27.4361 44.546 28.7992V41.1351C44.546 42.4983 43.4419 43.6023 42.0788 43.6023Z" stroke="#304C49" stroke-width="1.85039" stroke-linecap="round" stroke-linejoin="round"/>
<path d="M35.911 26.3321L31.8488 22.2698C31.3664 21.7875 30.5856 21.7875 30.1045 22.2698L26.0422 26.3321" stroke="#304C49" stroke-width="1.85039" stroke-linecap="round" stroke-linejoin="round"/>
<path d="M33.4438 23.8649L35.0389 22.2698C35.5212 21.7875 36.3021 21.7875 36.7832 22.2698L40.8454 26.3321" stroke="#304C49" stroke-width="1.85039" stroke-linecap="round" stroke-linejoin="round"/>
</svg>
