<svg width="23" height="26" viewBox="0 0 23 26" fill="none" xmlns="http://www.w3.org/2000/svg">
<path opacity="0.4" d="M22.8502 9.02631V17.5763C22.8502 18.9763 22.1002 20.2763 20.8877 20.9888L13.4627 25.2763C12.2502 25.9763 10.7502 25.9763 9.52525 25.2763L2.1002 20.9888C0.887695 20.2888 0.137695 18.9888 0.137695 17.5763V9.02631C0.137695 7.62631 0.887695 6.32626 2.1002 5.61376L9.52525 1.32627C10.7377 0.62627 12.2377 0.62627 13.4627 1.32627L20.8877 5.61376C22.1002 6.32626 22.8502 7.61381 22.8502 9.02631Z" fill="#D80027"/>
<path d="M11.5 15.4888C10.9875 15.4888 10.5625 15.0638 10.5625 14.5513V7.98877C10.5625 7.47627 10.9875 7.05127 11.5 7.05127C12.0125 7.05127 12.4375 7.47627 12.4375 7.98877V14.5513C12.4375 15.0638 12.0125 15.4888 11.5 15.4888Z" fill="#D80027"/>
<path d="M11.5 19.8652C11.3375 19.8652 11.175 19.8277 11.025 19.7652C10.8625 19.7027 10.7375 19.6153 10.6125 19.5028C10.5 19.3778 10.4125 19.2402 10.3375 19.0902C10.275 18.9402 10.25 18.7777 10.25 18.6152C10.25 18.2902 10.375 17.9652 10.6125 17.7277C10.7375 17.6152 10.8625 17.5278 11.025 17.4653C11.4875 17.2653 12.0375 17.3777 12.3875 17.7277C12.5 17.8527 12.5875 17.9777 12.65 18.1402C12.7125 18.2902 12.75 18.4527 12.75 18.6152C12.75 18.7777 12.7125 18.9402 12.65 19.0902C12.5875 19.2402 12.5 19.3778 12.3875 19.5028C12.15 19.7403 11.8375 19.8652 11.5 19.8652Z" fill="#D80027"/>
</svg>
