<svg width="27" height="23" viewBox="0 0 27 23" fill="none" xmlns="http://www.w3.org/2000/svg">
<path d="M16.3409 8.62633C17.934 10.2195 17.934 12.8058 16.3409 14.4016C14.7477 15.9947 12.1614 15.9947 10.5656 14.4016C8.97244 12.8085 8.97244 10.2222 10.5656 8.62633C12.1614 7.03048 14.7464 7.03048 16.3409 8.62633" stroke="#FAFAFA" stroke-width="2.04074" stroke-linecap="round" stroke-linejoin="round"/>
<path fill-rule="evenodd" clip-rule="evenodd" d="M1.20935 11.5107C1.20935 10.6142 1.41615 9.72713 1.81613 8.90948V8.90948C3.87727 4.69604 8.43219 1.9873 13.4538 1.9873C18.4753 1.9873 23.0303 4.69604 25.0914 8.90948V8.90948C25.4914 9.72713 25.6982 10.6142 25.6982 11.5107C25.6982 12.4073 25.4914 13.2943 25.0914 14.112V14.112C23.0303 18.3254 18.4753 21.0342 13.4538 21.0342C8.43219 21.0342 3.87727 18.3254 1.81613 14.112V14.112C1.41615 13.2943 1.20935 12.4073 1.20935 11.5107Z" stroke="#FAFAFA" stroke-width="2.04074" stroke-linecap="round" stroke-linejoin="round"/>
</svg>
