<svg width="24" height="23" viewBox="0 0 24 23" fill="none" xmlns="http://www.w3.org/2000/svg">
<path d="M9.25 19.375H3.2875C2.23113 19.375 1.375 18.4795 1.375 17.3748V3.37525C1.375 2.2705 2.23113 1.375 3.2875 1.375H18.5875C19.6439 1.375 20.5 2.2705 20.5 3.37525V8.125" stroke="white" stroke-width="1.6875" stroke-linecap="round" stroke-linejoin="round"/>
<path d="M8.125 5.875H14.875" stroke="white" stroke-width="1.6875" stroke-linecap="round" stroke-linejoin="round"/>
<path d="M5.875 10.375H14.875" stroke="white" stroke-width="1.6875" stroke-linecap="round" stroke-linejoin="round"/>
<path d="M5.875 14.875H9.25" stroke="white" stroke-width="1.6875" stroke-linecap="round" stroke-linejoin="round"/>
<path fill-rule="evenodd" clip-rule="evenodd" d="M17.4546 21.2954L22.4204 16.3296C22.8603 15.8898 22.8603 15.1776 22.4204 14.7389L20.6361 12.9546C20.1962 12.5148 19.4841 12.5148 19.0454 12.9546L14.0796 17.9204C13.8681 18.1319 13.75 18.4176 13.75 18.7158V21.625H16.6592C16.9574 21.625 17.2431 21.5069 17.4546 21.2954V21.2954Z" stroke="white" stroke-width="1.6875" stroke-linecap="round" stroke-linejoin="round"/>
</svg>
